<svg xmlns="http://www.w3.org/2000/svg" width="256" height="256"><path fill-opacity=".016" d="M0 128.004v128.004l128.25-.254 128.25-.254.254-127.75L257.008 0H0v128.004m.485.496c0 70.4.119 99.053.265 63.672.146-35.38.146-92.98 0-128C.604 29.153.485 58.1.485 128.5" fill="#bf360c" fill-rule="evenodd"/><path fill-opacity=".087" d="M105.806 36.354c-2.582.72-5.507 1.924-6.5 2.677-5.161 3.912-7.783 6.942-9.923 11.469-1.998 4.226-2.365 6.569-2.373 15.142L87 75.784l-18.75.384c-17.655.362-19.076.536-24.336 2.978-6.791 3.153-12 8.187-15.664 15.137L25.5 99.5v98l2.476 5c3.157 6.375 9.149 12.367 15.524 15.524l5 2.476h159l5-2.476c6.375-3.157 12.367-9.149 15.524-15.524l2.476-5v-98l-2.75-5.217c-3.664-6.95-8.873-11.984-15.664-15.137-5.26-2.442-6.681-2.616-24.336-2.978L169 75.784l-.01-10.142c-.008-8.512-.384-10.947-2.341-15.149-2.558-5.492-8.025-10.862-13.576-13.334-4.844-2.157-40.253-2.76-47.267-.805M109.2 58.2c-.741.741-1.2 4.378-1.2 9.5V76h40v-8.3c0-5.122-.459-8.759-1.2-9.5-1.688-1.688-35.912-1.688-37.6 0m-59.123 42.389L47 103.178v90.549l2.636 2.637L52.273 199h151.454l2.637-2.636 2.636-2.637v-90.549l-3.077-2.589L202.847 98H53.153l-3.076 2.589m69.307 12.761c-10.651 2.713-19.347 10.075-24.249 20.53-2.267 4.836-2.635 6.945-2.635 15.12 0 8.903.213 9.893 3.39 15.752 4.127 7.609 10.367 13.547 17.935 17.066 4.738 2.203 7.078 2.637 14.175 2.63 11.344-.012 18.75-3.251 26.447-11.564C161.329 165.45 164 158.633 164 148.5c0-9.886-2.671-16.884-9.149-23.973-9.201-10.067-22.888-14.381-35.467-11.177m.798 22.68c-6.866 4.187-8.814 14.465-4.017 21.201 6.165 8.658 20.237 7.395 25.083-2.251 6.535-13.006-8.553-26.578-21.066-18.95" fill="#bf360c" fill-rule="evenodd"/><path fill-opacity=".162" d="M100.882 38.793c-5.975 3.121-11.253 9.282-12.836 14.982-.569 2.049-1.037 8.113-1.04 13.475L87 77H68.678c-14.133 0-19.39.364-22.994 1.592-6.377 2.173-13.968 9.249-17.384 16.205l-2.8 5.703v96l2.352 5.202c2.974 6.574 11.105 14.347 17.651 16.871 4.78 1.843 8.37 1.927 82.497 1.927s77.717-.084 82.497-1.927c6.546-2.524 14.677-10.297 17.651-16.871l2.352-5.202v-96l-2.8-5.703c-3.416-6.956-11.007-14.032-17.384-16.205-3.604-1.228-8.861-1.592-22.994-1.592H169l-.006-9.75c-.003-5.362-.471-11.426-1.04-13.475-1.583-5.7-6.861-11.861-12.836-14.982L149.772 36h-43.544l-5.346 2.793M109.2 58.2c-.752.752-1.2 4.489-1.2 10V77h40v-8.8c0-5.511-.448-9.248-1.2-10-1.688-1.688-35.912-1.688-37.6 0M50.656 99.133c-4.382 2.547-4.656 5.468-4.654 49.585.001 37.775.169 42.118 1.75 45.282 1.191 2.384 2.864 3.881 5.248 4.694 5.009 1.708 144.991 1.708 150 0 2.384-.813 4.057-2.31 5.248-4.694 1.581-3.164 1.749-7.507 1.75-45.282.002-44.455-.264-47.185-4.848-49.638-2.816-1.507-151.897-1.457-154.494.053M121 113.379c-11.475 2.575-20.392 9.607-25.581 20.175-2.575 5.245-2.917 7.008-2.903 14.946.013 7.637.42 9.869 2.688 14.736 6.827 14.652 23.399 23.597 38.546 20.806 16.865-3.108 28.817-16.257 30.017-33.023 1.688-23.598-20.055-42.735-42.767-37.64m3.169 20.653c-4.354.978-8.934 5.451-10.321 10.08-4.4 14.686 13.855 25.901 24.636 15.136 10.835-10.82.742-28.598-14.315-25.216" fill="#bf360c" fill-rule="evenodd"/><path fill-opacity=".469" d="M105.994 36.899c-4.551 1.448-8.451 3.885-11.632 7.266-5.542 5.89-6.675 9.293-7.162 21.51l-.446 11.175-19.127.325c-18.591.316-19.286.403-24.809 3.115-6.159 3.025-10.523 7.366-14.062 13.988-2.255 4.22-2.256 4.244-2.256 54.222s.001 50.002 2.256 54.222c3.363 6.294 7.486 10.542 13.425 13.832L47.5 219.5h161l4.222-2.256c6.294-3.363 10.542-7.486 13.832-13.425l2.946-5.319v-50c0-49.978-.001-50.002-2.256-54.222-3.539-6.622-7.903-10.963-14.062-13.988-5.523-2.712-6.218-2.799-24.809-3.115l-19.127-.325-.449-11.175c-.501-12.482-2.014-16.723-7.959-22.313-6.978-6.56-8.228-6.842-31.338-7.061-11.55-.11-22.128.159-23.506.598M109 58c-1.686 1.686-2 3.333-2 10.5V77h42v-8.5c0-12.641.236-12.5-21-12.5-15.667 0-17.157.157-19 2M52.388 97.97c-1.161.475-3.074 2.087-4.25 3.582-2.111 2.684-2.138 3.274-2.138 47.183V193.2l3.4 3.4 3.4 3.4h150.4l3.4-3.4 3.4-3.4v-89.168l-2.918-3.266-2.917-3.266-74.833-.196c-41.157-.108-75.782.192-76.944.666m63.88 16.926c-16.327 6.061-26.209 22.883-23.198 39.488 2.981 16.44 16.082 28.349 32.337 29.392 13.275.852 24.413-4.346 31.739-14.813 12.59-17.989 6.027-42.882-13.874-52.618-7.491-3.665-19.324-4.3-27.004-1.449m4.58 20.065c-14.585 7.933-7.559 30.619 8.908 28.763 13.937-1.571 18.576-19.655 7.131-27.804-4.353-3.1-11.336-3.518-16.039-.959" fill="#bf360c" fill-rule="evenodd"/></svg>